<svg width="687" height="140" viewBox="0 0 687 140" fill="none" xmlns="http://www.w3.org/2000/svg">
<mask id="mask0_77_12" style="mask-type:luminance" maskUnits="userSpaceOnUse" x="0" y="0" width="139" height="140">
<path d="M69.5 139.335C107.884 139.335 139 108.144 139 69.6674C139 31.1912 107.884 0 69.5 0C31.1162 0 0 31.1912 0 69.6674C0 108.144 31.1162 139.335 69.5 139.335Z" fill="white"/>
</mask>
<g mask="url(#mask0_77_12)">
<path d="M68.2179 -2.8227C72.475 -3.18738 76.7496 -2.96681 81.0008 -2.64625C92.3783 -1.71691 103.533 1.86808 113.329 7.74994C122.248 13.1789 130.099 20.4136 136.052 29.0158C143.325 39.4502 147.881 51.7786 149.069 64.454C149.498 68.1743 149.392 71.924 149.357 75.659C148.6 95.3779 139.068 114.273 124.61 127.49C111.252 139.792 93.367 147.247 75.1741 147.365C63.5854 147.744 51.8969 145.38 41.3995 140.412C31.9349 136.03 23.4002 129.654 16.4851 121.837C9.03604 113.582 3.61133 103.56 0.4897 92.8928C-3.08081 80.6233 -3.33899 67.4626 -0.581159 55.0048C2.86026 39.8237 11.4095 25.9602 23.0511 15.714C35.4115 4.59726 51.6886 -1.84631 68.2179 -2.8227ZM73.4373 13.8053C62.1566 15.114 51.1869 20.0783 43.2478 28.3012C35.1034 36.5505 30.3594 48.1289 30.6674 59.7574C30.8816 69.3448 35.1973 78.9293 42.7168 84.9641C47.7953 89.0696 54.3056 91.3194 60.8246 91.2665C64.1311 91.2547 67.4346 91.2724 70.7411 91.2518C70.7 94.2221 70.7323 97.1925 70.7147 100.163C67.9128 100.354 65.1168 100.71 62.3033 100.598C55.617 100.789 48.8691 99.3188 42.9251 96.2308C33.7128 91.5429 26.4691 83.1437 23.1978 73.318C20.4106 65.1775 20.3226 56.34 21.8072 47.9289C18.8528 47.9231 15.8983 47.9289 12.9439 47.926C11.125 58.0369 11.7704 68.7213 15.5962 78.3088C17.6733 83.5701 20.6776 88.452 24.3978 92.7076C32.0874 101.574 43.0542 107.562 54.7075 109C60.5283 109.627 66.5632 109.341 72.0936 107.259C76.2215 105.68 80.0531 103.233 83.1161 100.028C86.7042 96.4484 89.4151 91.8665 90.3422 86.8404C91.1872 82.3761 90.7471 77.5265 88.4352 73.5474C85.8827 68.9125 80.7426 65.9627 75.491 65.8774C70.3743 65.8892 65.2577 65.8804 60.1439 65.8892C60.141 62.8748 60.1469 59.8574 60.1439 56.8429C64.9672 56.8517 69.7905 56.8429 74.6138 56.8488C79.0146 56.6341 83.4858 57.5164 87.3907 59.5868C92.1788 62.0307 95.9606 66.248 98.1434 71.1447C100.895 77.2 101.33 84.2142 99.578 90.6136C98.2519 95.8102 95.6114 100.613 92.1641 104.698C85.8241 112.224 76.5237 117.038 66.8156 118.302C59.9885 119.267 53.0323 118.605 46.3548 116.991C46.3753 119.917 46.3724 122.846 46.3695 125.772C52.9531 127.372 59.7978 127.849 66.5368 127.181C77.3804 126.169 87.8866 121.44 95.7141 113.829C102.761 107.159 107.673 98.163 109.11 88.5255C110.853 77.8529 107.793 66.2951 100.338 58.3575C96.0251 53.7196 90.2337 50.4728 84.0256 49.2582C80.0678 48.5142 76.022 48.8642 72.0202 48.8289C72.0408 45.9203 72.0584 43.0146 72.0202 40.1061C74.1443 39.7561 76.3037 39.812 78.4513 39.7943C85.1639 39.6855 91.9148 41.256 97.8382 44.441C107.541 49.6288 114.734 59.0986 117.539 69.7154C119.038 75.0855 119.32 80.7203 119.009 86.2669C121.931 86.261 124.853 86.2581 127.778 86.2669C128.06 81.6144 128.028 76.9089 127.194 72.3122C126.106 65.6775 123.668 59.2751 120.074 53.5991C114.47 44.6116 105.833 37.5945 95.9048 33.9507C90.8879 32.0832 85.5336 31.3244 80.2028 31.1745C76.2626 31.2774 72.2843 31.7538 68.57 33.1419C63.0485 35.1418 58.014 38.665 54.5461 43.444C51.5477 47.5643 49.5674 52.5403 49.4617 57.6752C49.3913 61.4131 50.3566 65.2569 52.6186 68.2772C55.0332 71.6152 59.0731 73.6768 63.1864 73.6886C67.0767 73.7209 70.964 73.6915 74.8543 73.7003C74.869 76.6795 74.8426 79.6587 74.8719 82.6408C70.1866 82.6202 65.5041 82.6437 60.8187 82.6437C55.9544 82.629 51.1575 80.7056 47.5489 77.453C44.2131 74.5944 41.9305 70.6506 40.7012 66.4568C38.5654 59.5162 39.4455 51.8727 42.353 45.288C46.525 35.7447 54.8923 28.3188 64.6093 24.775C75.6025 20.84 87.9364 21.4194 98.8093 25.4779C98.8299 22.3928 98.8592 19.3049 98.7888 16.2228C97.0285 15.7905 95.3122 15.1876 93.5342 14.8258C86.9565 13.3318 80.1294 13.1289 73.4373 13.8053Z" fill="#082F49"/>
</g>
<path d="M180.76 98V46.16H187.168V91.916H211.216V98H180.76ZM218.026 52.244V45.62H224.434V52.244H218.026ZM218.026 98V59.12H224.434V98H218.026ZM245.747 98L231.635 59.12H238.115L249.023 89.828L259.895 59.12H266.411L252.299 98H245.747ZM288.365 99.08C284.549 99.08 281.213 98.24 278.357 96.56C275.525 94.856 273.317 92.492 271.733 89.468C270.149 86.42 269.357 82.868 269.357 78.812C269.357 74.564 270.137 70.892 271.697 67.796C273.257 64.676 275.429 62.276 278.213 60.596C281.021 58.892 284.309 58.04 288.077 58.04C291.989 58.04 295.313 58.94 298.049 60.74C300.809 62.54 302.873 65.108 304.241 68.444C305.633 71.78 306.233 75.752 306.041 80.36H299.561V78.056C299.489 73.28 298.517 69.716 296.645 67.364C294.773 64.988 291.989 63.8 288.293 63.8C284.333 63.8 281.321 65.072 279.257 67.616C277.193 70.16 276.161 73.808 276.161 78.56C276.161 83.144 277.193 86.696 279.257 89.216C281.321 91.736 284.261 92.996 288.077 92.996C290.645 92.996 292.877 92.408 294.773 91.232C296.669 90.056 298.157 88.364 299.237 86.156L305.393 88.28C303.881 91.712 301.601 94.376 298.553 96.272C295.529 98.144 292.133 99.08 288.365 99.08ZM274.001 80.36V75.212H302.729V80.36H274.001ZM320.929 98L309.049 59.084L315.421 59.12L324.097 87.56L332.845 59.12H338.497L347.209 87.56L355.921 59.12H362.257L350.377 98H345.049L335.653 68.444L326.257 98H320.929ZM369.479 52.244V45.62H375.887V52.244H369.479ZM369.479 98V59.12H375.887V98H369.479ZM386.688 98V59.12H392.412V68.516L391.476 67.292C391.932 66.092 392.52 64.988 393.24 63.98C393.984 62.972 394.812 62.144 395.724 61.496C396.732 60.68 397.872 60.056 399.144 59.624C400.416 59.192 401.712 58.94 403.032 58.868C404.352 58.772 405.588 58.856 406.74 59.12V65.132C405.396 64.772 403.92 64.676 402.312 64.844C400.704 65.012 399.216 65.6 397.848 66.608C396.6 67.496 395.628 68.576 394.932 69.848C394.26 71.12 393.792 72.5 393.528 73.988C393.264 75.452 393.132 76.952 393.132 78.488V98H386.688ZM429.693 99.08C425.877 99.08 422.541 98.24 419.685 96.56C416.853 94.856 414.645 92.492 413.061 89.468C411.477 86.42 410.685 82.868 410.685 78.812C410.685 74.564 411.465 70.892 413.025 67.796C414.585 64.676 416.757 62.276 419.541 60.596C422.349 58.892 425.637 58.04 429.405 58.04C433.317 58.04 436.641 58.94 439.377 60.74C442.137 62.54 444.201 65.108 445.569 68.444C446.961 71.78 447.561 75.752 447.369 80.36H440.889V78.056C440.817 73.28 439.845 69.716 437.973 67.364C436.101 64.988 433.317 63.8 429.621 63.8C425.661 63.8 422.649 65.072 420.585 67.616C418.521 70.16 417.489 73.808 417.489 78.56C417.489 83.144 418.521 86.696 420.585 89.216C422.649 91.736 425.589 92.996 429.405 92.996C431.973 92.996 434.205 92.408 436.101 91.232C437.997 90.056 439.485 88.364 440.565 86.156L446.721 88.28C445.209 91.712 442.929 94.376 439.881 96.272C436.857 98.144 433.461 99.08 429.693 99.08ZM415.329 80.36V75.212H444.057V80.36H415.329ZM469.798 98V46.16H501.478V55.952H479.59V67.184H497.158V76.976H479.59V98H469.798ZM508.698 53.72V45.08H518.49V53.72H508.698ZM508.698 98V59.12H518.49V98H508.698ZM530.002 98V45.08H539.794V98H530.002ZM573.915 98C571.227 98.504 568.587 98.72 565.995 98.648C563.427 98.6 561.123 98.156 559.083 97.316C557.067 96.452 555.531 95.072 554.475 93.176C553.515 91.4 553.011 89.6 552.963 87.776C552.915 85.928 552.891 83.84 552.891 81.512V48.32H562.683V80.936C562.683 82.448 562.695 83.816 562.719 85.04C562.767 86.24 563.019 87.2 563.475 87.92C564.339 89.288 565.719 90.032 567.615 90.152C569.511 90.272 571.611 90.176 573.915 89.864V98ZM546.267 66.68V59.12H573.915V66.68H546.267ZM598.471 99.08C594.487 99.08 590.971 98.228 587.923 96.524C584.899 94.796 582.523 92.432 580.795 89.432C579.091 86.408 578.239 82.952 578.239 79.064C578.239 74.816 579.079 71.12 580.759 67.976C582.439 64.832 584.755 62.396 587.707 60.668C590.659 58.916 594.055 58.04 597.895 58.04C601.975 58.04 605.443 59 608.299 60.92C611.155 62.84 613.267 65.54 614.635 69.02C616.003 72.5 616.483 76.592 616.075 81.296H606.391V77.696C606.391 73.736 605.755 70.892 604.483 69.164C603.235 67.412 601.183 66.536 598.327 66.536C594.991 66.536 592.531 67.556 590.947 69.596C589.387 71.612 588.607 74.6 588.607 78.56C588.607 82.184 589.387 84.992 590.947 86.984C592.531 88.952 594.847 89.936 597.895 89.936C599.815 89.936 601.459 89.516 602.827 88.676C604.195 87.836 605.239 86.624 605.959 85.04L615.751 87.848C614.287 91.4 611.971 94.16 608.803 96.128C605.659 98.096 602.215 99.08 598.471 99.08ZM585.583 81.296V74.024H611.359V81.296H585.583ZM624.204 98V59.12H632.844V68.624L631.908 67.4C632.412 66.056 633.084 64.832 633.924 63.728C634.764 62.624 635.796 61.712 637.02 60.992C637.956 60.416 638.976 59.972 640.08 59.66C641.184 59.324 642.324 59.12 643.5 59.048C644.676 58.952 645.852 58.976 647.028 59.12V68.264C645.948 67.928 644.688 67.82 643.248 67.94C641.832 68.036 640.548 68.36 639.396 68.912C638.244 69.44 637.272 70.148 636.48 71.036C635.688 71.9 635.088 72.932 634.68 74.132C634.272 75.308 634.068 76.64 634.068 78.128V98H624.204ZM667.662 99.08C662.766 99.08 658.806 97.976 655.782 95.768C652.782 93.536 650.958 90.392 650.31 86.336L660.318 84.824C660.726 86.648 661.626 88.076 663.018 89.108C664.434 90.14 666.222 90.656 668.382 90.656C670.158 90.656 671.526 90.32 672.486 89.648C673.446 88.952 673.926 87.992 673.926 86.768C673.926 86 673.734 85.388 673.35 84.932C672.966 84.452 672.102 83.984 670.758 83.528C669.438 83.072 667.374 82.472 664.566 81.728C661.398 80.912 658.866 80 656.97 78.992C655.074 77.984 653.706 76.784 652.866 75.392C652.026 73.976 651.606 72.272 651.606 70.28C651.606 67.784 652.242 65.624 653.514 63.8C654.786 61.952 656.574 60.536 658.878 59.552C661.206 58.544 663.942 58.04 667.086 58.04C670.134 58.04 672.834 58.508 675.186 59.444C677.538 60.38 679.434 61.712 680.874 63.44C682.338 65.168 683.238 67.208 683.574 69.56L673.566 71.36C673.398 69.92 672.774 68.78 671.694 67.94C670.614 67.1 669.15 66.608 667.302 66.464C665.502 66.344 664.05 66.584 662.946 67.184C661.866 67.784 661.326 68.648 661.326 69.776C661.326 70.448 661.554 71.012 662.01 71.468C662.49 71.924 663.462 72.392 664.926 72.872C666.414 73.352 668.67 73.976 671.694 74.744C674.646 75.512 677.01 76.412 678.786 77.444C680.586 78.452 681.894 79.676 682.71 81.116C683.526 82.532 683.934 84.248 683.934 86.264C683.934 90.248 682.494 93.38 679.614 95.66C676.734 97.94 672.75 99.08 667.662 99.08Z" fill="#082F49"/>
</svg>
