<svg class="w-32 h-8" viewBox="0 0 220 53" xmlns="http://www.w3.org/2000/svg" xml:space="preserve" style="fill-rule:evenodd;clip-rule:evenodd;stroke-linejoin:round;stroke-miterlimit:2">
    <path d="M100.095 147.632H87.683V249.21h12.861v-50.789c0-12.354 3.066-20.786 8.075-20.786 1.047 0 3.141.196 4.861 1.372v-32.944c-1.271-.588-1.421-.588-2.617-.588-2.842 0-9.497 4.706-10.768 23.924v-21.767ZM138.754 251.367c6.281 0 12.935-4.51 18.095-18.825-1.047-2.549-5.309-16.472-6.356-19.218-3.365 7.452-6.879 10.982-10.618 10.982-7.328 0-11.366-10.393-11.515-19.61h29.835c.075-1.373.075-2.941.075-4.314 0-35.886-8.899-54.907-20.638-54.907-13.31 0-21.61 24.316-21.61 53.338 0 29.023 8.375 52.554 22.732 52.554Zm-1.197-80.792c3.814 0 8.151 4.51 8.599 16.08h-17.647c.748-11.766 5.384-16.08 9.048-16.08ZM175.169 198.225c0-14.315 3.215-26.081 8.673-26.081 5.459 0 9.123 10.785 9.123 27.061 0 16.08-3.888 25.689-8.973 25.689-5.459 0-8.823-11.766-8.823-26.669Zm17.497-50.593v13.531c-2.393-9.413-6.73-15.688-11.815-15.688-11.365 0-18.618 23.335-18.618 52.75 0 30.003 7.552 53.142 18.693 53.142 5.459 0 9.272-6.079 11.74-16.08v13.923h12.861V147.632h-12.861ZM211.883 198.421c0 29.807 8.973 52.946 22.208 52.946 4.71 0 10.393-3.137 16.151-15.295-1.047-4.118-5.01-18.041-6.057-22.159-3.439 8.04-7.402 9.412-9.347 9.412-5.907 0-10.019-10.393-10.019-24.904s4.112-24.708 10.019-24.708c2.019 0 5.908 1.372 9.347 9.412 1.047-4.118 5.01-18.04 6.057-22.158-5.758-12.158-11.441-15.492-16.151-15.492-13.235 0-22.208 23.139-22.208 52.946ZM255.85 249.21h12.861v-54.907c0-11.57 1.57-21.767 6.206-21.767 4.711 0 6.132 10.197 6.132 21.767v54.907h12.861v-56.868c0-22.159-2.393-46.867-13.684-46.867-4.935 0-8.748 4.706-11.515 15.492v-53.535H255.85V249.21Z" class="fill-slate-950 dark:fill-white" transform="matrix(.9629 0 0 .36717 -84.43 -39.445)"></path>
    <path d="M300.714 233.522c0 10.197 3.216 17.845 7.627 17.845 4.337 0 7.777-7.648 7.777-17.845 0-10.589-3.44-18.433-7.777-18.433-4.411 0-7.627 7.844-7.627 18.433Z" style="fill:#1d5e93;fill-rule:nonzero" transform="matrix(.9629 0 0 .36717 -84.43 -39.445)"></path>
</svg>