<svg width="211" height="211" viewBox="0 0 211 211" fill="none" xmlns="http://www.w3.org/2000/svg">
<mask id="mask0_4_15" style="mask-type:luminance" maskUnits="userSpaceOnUse" x="0" y="0" width="211" height="211">
<path d="M105.246 211C163.372 211 210.493 163.766 210.493 105.5C210.493 47.2339 163.372 0 105.246 0C47.1204 0 0 47.2339 0 105.5C0 163.766 47.1204 211 105.246 211Z" fill="white"/>
</mask>
<g mask="url(#mask0_4_15)">
<path d="M103.305 -4.27452C109.752 -4.82677 116.225 -4.49275 122.663 -4.00732C139.892 -2.59999 156.784 2.82891 171.618 11.736C185.125 19.9573 197.014 30.9131 206.028 43.9397C217.042 59.741 223.942 78.4103 225.741 97.6052C226.39 103.239 226.23 108.917 226.177 114.573C225.03 144.434 210.596 173.049 188.701 193.063C168.473 211.692 141.389 222.982 113.839 223.16C96.2897 223.734 78.5894 220.154 62.6928 212.632C48.3602 205.996 35.4359 196.341 24.9641 184.503C13.6836 172.002 5.4688 156.824 0.741593 140.671C-4.66537 122.091 -5.05634 102.161 -0.880048 83.2959C4.33143 60.3066 17.2779 39.3125 34.9072 23.7963C53.6249 6.9618 78.2739 -2.79594 103.305 -4.27452ZM111.209 20.9059C94.1261 22.8877 77.5142 30.4054 65.4918 42.8575C53.1584 55.3498 45.9743 72.8834 46.4408 90.4928C46.7652 105.011 53.3006 119.526 64.6877 128.664C72.3783 134.881 82.237 138.288 92.109 138.208C97.1161 138.19 102.119 138.217 107.126 138.186C107.064 142.684 107.113 147.182 107.086 151.68C102.843 151.97 98.6089 152.509 94.3482 152.339C84.2229 152.629 74.0043 150.402 65.0031 145.726C51.0525 138.627 40.0831 125.908 35.1293 111.028C30.9086 98.7007 30.7753 85.3178 33.0234 72.5806C28.5495 72.5717 24.0755 72.5806 19.6015 72.5761C16.847 87.8875 17.8244 104.067 23.6179 118.586C26.7634 126.553 31.3129 133.946 36.9464 140.391C48.5912 153.818 65.1986 162.885 82.8456 165.063C91.6603 166.012 100.799 165.58 109.174 162.427C115.425 160.035 121.227 156.33 125.866 151.475C131.299 146.055 135.405 139.117 136.809 131.506C138.088 124.745 137.422 117.401 133.921 111.376C130.055 104.357 122.272 99.8898 114.319 99.7607C106.571 99.7785 98.8222 99.7651 91.0782 99.7785C91.0738 95.2136 91.0827 90.6442 91.0782 86.0793C98.3823 86.0927 105.686 86.0793 112.99 86.0882C119.655 85.7631 126.426 87.0992 132.339 90.2345C139.59 93.9354 145.317 100.322 148.622 107.737C152.79 116.907 153.447 127.529 150.795 137.22C148.787 145.089 144.788 152.362 139.568 158.548C129.967 169.944 115.883 177.235 101.181 179.15C90.8428 180.611 80.3088 179.609 70.1968 177.164C70.2279 181.595 70.2235 186.031 70.219 190.462C80.1888 192.885 90.554 193.606 100.759 192.595C117.18 191.063 133.09 183.902 144.943 172.376C155.615 162.275 163.053 148.652 165.23 134.058C167.869 117.896 163.235 100.393 151.945 88.3729C145.414 81.3496 136.644 76.4329 127.243 74.5936C121.25 73.4668 115.123 73.9968 109.063 73.9434C109.094 69.5388 109.121 65.1387 109.063 60.7341C112.28 60.2041 115.55 60.2888 118.802 60.262C128.967 60.0973 139.19 62.4755 148.16 67.2987C162.853 75.1548 173.747 89.4952 177.994 105.573C180.264 113.705 180.691 122.238 180.22 130.637C184.645 130.628 189.07 130.624 193.5 130.637C193.926 123.592 193.877 116.466 192.615 109.505C190.967 99.4578 187.275 89.7624 181.833 81.1671C173.347 67.557 160.267 56.9308 145.232 51.4128C137.635 48.5848 129.527 47.4358 121.454 47.2086C115.487 47.3645 109.463 48.086 103.838 50.1881C95.4767 53.2165 87.8527 58.5519 82.6013 65.7889C78.0607 72.0284 75.0617 79.5638 74.9018 87.3397C74.7952 93.0002 76.2569 98.821 79.6823 103.395C83.3388 108.45 89.4566 111.572 95.6855 111.589C101.577 111.638 107.464 111.594 113.355 111.607C113.377 116.119 113.337 120.63 113.381 125.146C106.286 125.115 99.1954 125.15 92.1001 125.15C84.7339 125.128 77.4698 122.216 72.0051 117.29C66.9535 112.961 63.497 106.989 61.6354 100.638C58.401 90.1276 59.7339 78.5528 64.1368 68.5813C70.4545 54.1295 83.1255 42.8842 97.8403 37.5177C114.488 31.5588 133.165 32.4362 149.631 38.5821C149.662 33.9103 149.706 29.2341 149.6 24.5667C146.934 23.9121 144.335 22.9991 141.642 22.4513C131.682 20.1889 121.343 19.8816 111.209 20.9059Z" fill="#082F49"/>
</g>
</svg>
